<?xml version="1.0" encoding="UTF-8"?>
<!-- Created with Inkscape (http://www.inkscape.org/) -->
<svg width="31.732mm" height="30.902mm" version="1.1" viewBox="0 0 31.732 30.902" xmlns="http://www.w3.org/2000/svg" xmlns:cc="http://creativecommons.org/ns#" xmlns:dc="http://purl.org/dc/elements/1.1/" xmlns:rdf="http://www.w3.org/1999/02/22-rdf-syntax-ns#">
 <metadata>
  <rdf:RDF>
   <cc:Work rdf:about="">
    <dc:format>image/svg+xml</dc:format>
    <dc:type rdf:resource="http://purl.org/dc/dcmitype/StillImage"/>
    <dc:title/>
   </cc:Work>
  </rdf:RDF>
 </metadata>
 <g transform="translate(-75.71 -120.4)">
  <path d="m84.423 150.39c-5.1189-2.5436-8.7132-8.3689-8.7132-14.121 0-8.5608 7.3051-15.866 15.866-15.866 8.5608 0 15.866 7.3051 15.866 15.866 0 5.7806-3.6086 11.606-8.7579 14.138-2.9783 1.4646-2.9802 1.4631-3.1412-2.4994-0.077-1.8947-0.27454-3.551-0.46302-3.8824-0.45333-0.79703-0.45969-0.78871 0.75149-0.98239 1.5515-0.24809 3.5415-1.3332 4.3222-2.3566 1.8256-2.3936 2.0241-6.3496 0.44527-8.8777-0.2387-0.38223-0.36284-1.1271-0.32058-1.9234 0.0379-0.71478-9e-3 -1.6545-0.10422-2.0882-0.23017-1.048-1.1263-1.0498-3.1945-7e-3 -1.3583 0.68515-1.6826 0.75152-2.617 0.53563-1.3693-0.31637-4.2034-0.31637-5.5726 0-0.93437 0.21589-1.2586 0.14952-2.617-0.53563-2.0682-1.0432-2.9644-1.0414-3.1945 7e-3 -0.0953 0.43372-0.14217 1.3734-0.10423 2.0882 0.0423 0.79632-0.0819 1.5412-0.32057 1.9234-0.80143 1.2833-1.0315 2.1525-1.0315 3.8964 0 2.3821 0.62184 4.1104 1.9596 5.4462 1.0444 1.043 3.1697 1.9968 4.4491 1.9968 0.39709 0 0.4808 0.1142 0.33943 0.46302-0.10322 0.25466-0.30204 0.77852-0.44183 1.1641-0.42503 1.1724-2.2693 1.374-3.6983 0.40422-0.49802-0.33796-1.0504-0.56616-1.2276-0.50712-0.17714 0.059-0.32207-0.0286-0.32207-0.19489 0-0.16624 0.11906-0.22866 0.26458-0.13873 0.14552 0.0899 0.26459 0.052 0.26459-0.0843 0-0.35469-0.72004-0.90451-0.85695-0.65437-0.0631 0.11521-0.0817 0.0694-0.0415-0.10191 0.0953-0.40549-0.38637-0.79318-1.257-1.0117-1.0858-0.27251-1.2273 0.35335-0.25239 1.1163 0.46076 0.3606 1.1321 1.2365 1.4919 1.9465 0.82803 1.634 1.8482 2.2068 3.9036 2.1917l1.5325-0.0113-0.0773 1.7441c-0.0972 2.1931-0.38813 2.2784-3.1288 0.91649zm1.3317-4.0672c0-0.14552 0.11906-0.26458 0.26458-0.26458s0.26459 0.11906 0.26459 0.26458-0.11907 0.26458-0.26459 0.26458-0.26458-0.11906-0.26458-0.26458zm-1.3229-0.2802c0-0.15411 0.11907-0.20661 0.26459-0.11668 0.14552 0.0899 0.26458 0.21603 0.26458 0.2802 0 0.0642-0.11906 0.11668-0.26458 0.11668s-0.26459-0.12609-0.26459-0.2802zm2.5962 0.0995c0.19099-0.0764 0.4192-0.067 0.50712 0.0209 0.0879 0.0879-0.0684 0.15045-0.34727 0.13896-0.30822-0.0127-0.37092-0.0754-0.15985-0.15985zm-3.6546-0.61301c0-0.14552 0.11906-0.26458 0.26458-0.26458s0.26459 0.11906 0.26459 0.26458-0.11907 0.26458-0.26459 0.26458-0.26458-0.11906-0.26458-0.26458z" style="stroke-width:.26458"/>
 </g>
</svg>
