<?xml version="1.0" encoding="UTF-8"?>
<svg width="3111.3" height="1256" version="1.1" viewBox="0 0 823.21 332.32" xmlns="http://www.w3.org/2000/svg" xmlns:cc="http://creativecommons.org/ns#" xmlns:dc="http://purl.org/dc/elements/1.1/" xmlns:rdf="http://www.w3.org/1999/02/22-rdf-syntax-ns#">
 <metadata>
  <rdf:RDF>
   <cc:Work rdf:about="">
    <dc:format>image/svg+xml</dc:format>
    <dc:type rdf:resource="http://purl.org/dc/dcmitype/StillImage"/>
   </cc:Work>
  </rdf:RDF>
 </metadata>
 <g transform="translate(154.75 206.63)" fill="none" stroke="#000" stroke-width="9.0702">
  <path d="m-153.08-131.11c186.11-73.615-149.53 653.33 186.11-73.615"/>
  <g stroke-linecap="round">
   <path d="m-63.589 81.141c99.894-33.515-26.767-90.374-13.335 13.852 15.477 43.154 45.665 27.237 62.309-6.2388" stroke-linejoin="round" style="paint-order:normal"/>
   <g>
    <path d="m-14.076 119.06c27.527-51.574 34.248-188.5 31.928-230.17-17.726-24.1-18.537 236.54-4.1687 232.27"/>
    <path d="m116.95-166.43c-27.253 84.212-51.205 218.15-82.672 286.3-7.8243-3.1684 117.63-226.9 98.657-164.82-27.063 28.005-88.27 167.21-38.033 164.02"/>
    <path d="m167.85 26.609c-26.165-71.275-99.926 89.883-44.507 94.532 54.774-6.1 87.512-132.99 19.326-111.25"/>
   </g>
   <path d="m190.11 29.25c24.534 41.611-3.7964 108.17 2.7043 91.613 44.807-199.56 110.1-147.67 58.275-23.099-9.507 17.868 98.91-243.11 62.75 23.076" stroke-linejoin="round"/>
   <path d="m570.59 19.574c29.937 14.091-18.555 119.77-0.84792 72.439 35.224-105.29 110.54-187.24 73.659 12.338 0.36577 54.557 24.669-39.895 19.877-36.832"/>
   <path d="m503.85 81.141c99.894-33.515-26.767-90.374-13.335 13.852 15.477 43.154 45.665 27.237 62.309-6.2388" stroke-linejoin="round" style="paint-order:normal"/>
   <path d="m329.85 29.25c24.534 41.611-3.7964 108.17 2.7043 91.613 44.807-199.56 110.1-147.67 58.275-23.099-9.507 17.868 98.91-243.11 62.75 23.076" stroke-linejoin="round"/>
  </g>
 </g>
</svg>
