<?xml version="1.0" encoding="UTF-8"?>
<!-- Created with Inkscape (http://www.inkscape.org/) -->
<svg width="125.64" height="88.047" version="1.1" viewBox="0 0 125.64 88.047" xmlns="http://www.w3.org/2000/svg">
 <g transform="translate(9.4188 -5.7044)">
  <path d="m11.034 92.833c-11.766-1.2452-15.829-4.0627-18.558-12.87-2.5257-8.1506-2.5257-51.942 0-60.093 2.8718-9.2673 6.4643-11.508 20.975-13.082 13.377-1.4509 66.304-1.4433 79.725 0.01154 15.951 1.7291 19.946 5.1163 21.954 18.616 1.4543 9.7782 1.4543 39.224 0 49.002-1.9458 13.082-6.0708 16.813-20.404 18.455-10.415 1.193-72.32 1.1638-83.691-0.0395zm51.473-36.232c5.9125-3.3509 10.75-6.3589 10.75-6.6845 0-0.52335-9.1014-5.8619-27.25-15.984l-5.75-3.207v38.382l5.75-3.207c3.1625-1.7638 10.588-5.9486 16.5-9.2995z" fill="#f00"/>
 </g>
</svg>
